# xmcd
#
# Track frame offsets: 
#        150
#        12565
#        28162
#        39235
#        65480
#        80085
#        98742
#        111685
#        126512
#        136042
#        152285
#        167060
#        178347
#        195272
#        214405
#        229630
#        248690
#        260420
#        272440
#        289020
#
# Disc length: 4106 seconds
#
# Revision: 2
# Processed by: cddbd v1.5.2PL0 Copyright (c) Steve Scherf et al.
# Submitted via: ExactAudioCopy v0.95b4
#
DISCID=1b100814
DTITLE=Various Artist - Summer Country CD2
DYEAR=2002
DGENRE=Country
TTITLE0=Dolly Parton - 9 to 5
TTITLE1=Siobhan Maher-Kennedy - I Want To See The Bright Lights Tonigh
TTITLE1=t
TTITLE2=Alan Jackson - Chattahoochee
TTITLE3=Kenny Chesney - One Step Up
TTITLE4=Raul Malo - I Said I Love You
TTITLE5=Kris Kristofferson - Me And Bobby McGee
TTITLE6=Martina McBride - I Love You
TTITLE7=Brooks and Dunn - Boot Scootin' Boogie
TTITLE8=Waylon Jennings - Theme From The Dukes of Hazzard
TTITLE9=Grand Drive - Wheels
TTITLE10=Alabama - Love In The First Degree
TTITLE11=BR5-49 - Cherokee Boogie
TTITLE12=Charlie Landsborough - Gasoline Alley
TTITLE13=Ronnie Milsap - Lost In The Fifties tonight
TTITLE14=Billy Ray Cyrus - Achy Breaky Heart
TTITLE15=Mindy McCready - Oh Romeo
TTITLE16=Claire Sweeney - My Baby Loves Me
TTITLE17=Tammy Wynette - Stand By Your Man
TTITLE18=EmmyLou Harris - Here, There And Everywhere
TTITLE19=Nanci Griffith - From A Distance
EXTD=YEAR: 2002 ID3G: 2
EXTT0=
EXTT1=
EXTT2=
EXTT3=
EXTT4=
EXTT5=
EXTT6=
EXTT7=
EXTT8=
EXTT9=
EXTT10=
EXTT11=
EXTT12=
EXTT13=
EXTT14=
EXTT15=
EXTT16=
EXTT17=
EXTT18=
EXTT19=
PLAYORDER=
